<svg width="64" height="64" viewBox="0 0 64 64" fill="none" xmlns="http://www.w3.org/2000/svg">
<path fill-rule="evenodd" clip-rule="evenodd" d="M59.1567 27.5468C59.9489 25.3495 60.3812 22.976 60.3812 20.5C60.3812 9.17816 51.3415 0 40.1906 0C29.0396 0 20 9.17816 20 20.5C20 31.8218 29.0396 41 40.1906 41C44.8429 41 49.1277 39.4024 52.5418 36.7181L60.2054 39.2712C62.7472 40.118 64.9566 37.3001 63.5739 34.9749L59.1567 27.5468Z" fill="#5CC9FA"/>
<g style="mix-blend-mode:multiply">
<path fill-rule="evenodd" clip-rule="evenodd" d="M10.277 29C7.35693 29 4.98978 31.4178 4.98978 34.4003V53.8082L1.39056 59.8969C0.123296 62.0407 2.14823 64.6389 4.47783 63.8581L15.8352 60.0517H36.7128C39.6329 60.0517 42 57.6339 42 54.6514V34.4003C42 31.4178 39.6329 29 36.7128 29H10.277Z" fill="#8C1AF5"/>
</g>
</svg>
